<mxfile host="app.diagrams.net" modified="2023-06-19T13:20:27.303Z" agent="Mozilla/5.0 (Windows NT 10.0; Win64; x64) AppleWebKit/537.36 (KHTML, like Gecko) Chrome/113.0.0.0 Safari/537.36" etag="s3O__0W-C742tmqDVrtQ" version="21.5.0" type="github">
  <diagram name="Page-1" id="UxIshtgka003ao0sYjYL">
    <mxGraphModel dx="794" dy="438" grid="1" gridSize="10" guides="1" tooltips="1" connect="1" arrows="0" fold="1" page="1" pageScale="1" pageWidth="1100" pageHeight="1700" math="0" shadow="0">
      <root>
        <mxCell id="0" />
        <mxCell id="1" parent="0" />
        <mxCell id="VxDrKxtzlqHsqCCPACk3-33" value="" style="endArrow=none;html=1;rounded=0;" edge="1" parent="1" source="VxDrKxtzlqHsqCCPACk3-32" target="VxDrKxtzlqHsqCCPACk3-16">
          <mxGeometry width="50" height="50" relative="1" as="geometry">
            <mxPoint x="330" y="240" as="sourcePoint" />
            <mxPoint x="380" y="190" as="targetPoint" />
          </mxGeometry>
        </mxCell>
        <mxCell id="VxDrKxtzlqHsqCCPACk3-21" style="edgeStyle=orthogonalEdgeStyle;rounded=0;orthogonalLoop=1;jettySize=auto;html=1;exitX=0.25;exitY=1;exitDx=0;exitDy=0;entryX=0;entryY=0.5;entryDx=0;entryDy=0;" edge="1" parent="1" source="VxDrKxtzlqHsqCCPACk3-6" target="VxDrKxtzlqHsqCCPACk3-16">
          <mxGeometry relative="1" as="geometry" />
        </mxCell>
        <mxCell id="VxDrKxtzlqHsqCCPACk3-6" value="Nav" style="rounded=1;whiteSpace=wrap;html=1;" vertex="1" parent="1">
          <mxGeometry x="140" y="15" width="60" height="40" as="geometry" />
        </mxCell>
        <mxCell id="VxDrKxtzlqHsqCCPACk3-8" style="edgeStyle=orthogonalEdgeStyle;rounded=0;orthogonalLoop=1;jettySize=auto;html=1;exitX=1;exitY=0.5;exitDx=0;exitDy=0;entryX=0;entryY=0.5;entryDx=0;entryDy=0;" edge="1" parent="1" source="VxDrKxtzlqHsqCCPACk3-7" target="VxDrKxtzlqHsqCCPACk3-6">
          <mxGeometry relative="1" as="geometry" />
        </mxCell>
        <mxCell id="VxDrKxtzlqHsqCCPACk3-7" value="Home Page" style="rounded=1;whiteSpace=wrap;html=1;" vertex="1" parent="1">
          <mxGeometry x="10" y="10" width="100" height="50" as="geometry" />
        </mxCell>
        <mxCell id="VxDrKxtzlqHsqCCPACk3-19" value="" style="group" vertex="1" connectable="0" parent="1">
          <mxGeometry x="180" y="70" width="550" height="40" as="geometry" />
        </mxCell>
        <mxCell id="VxDrKxtzlqHsqCCPACk3-22" value="" style="endArrow=none;html=1;rounded=0;" edge="1" parent="VxDrKxtzlqHsqCCPACk3-19" source="VxDrKxtzlqHsqCCPACk3-16" target="VxDrKxtzlqHsqCCPACk3-9">
          <mxGeometry width="50" height="50" relative="1" as="geometry">
            <mxPoint x="200" y="160" as="sourcePoint" />
            <mxPoint x="250" y="110" as="targetPoint" />
          </mxGeometry>
        </mxCell>
        <mxCell id="VxDrKxtzlqHsqCCPACk3-9" value="newsletter" style="rounded=1;whiteSpace=wrap;html=1;" vertex="1" parent="VxDrKxtzlqHsqCCPACk3-19">
          <mxGeometry x="490" width="60" height="40" as="geometry" />
        </mxCell>
        <mxCell id="VxDrKxtzlqHsqCCPACk3-10" value="saved recipes" style="rounded=1;whiteSpace=wrap;html=1;" vertex="1" parent="VxDrKxtzlqHsqCCPACk3-19">
          <mxGeometry x="420" width="60" height="40" as="geometry" />
        </mxCell>
        <mxCell id="VxDrKxtzlqHsqCCPACk3-11" value="features" style="rounded=1;whiteSpace=wrap;html=1;" vertex="1" parent="VxDrKxtzlqHsqCCPACk3-19">
          <mxGeometry x="350" width="60" height="40" as="geometry" />
        </mxCell>
        <mxCell id="VxDrKxtzlqHsqCCPACk3-12" value="equipment" style="rounded=1;whiteSpace=wrap;html=1;" vertex="1" parent="VxDrKxtzlqHsqCCPACk3-19">
          <mxGeometry x="280" width="60" height="40" as="geometry" />
        </mxCell>
        <mxCell id="VxDrKxtzlqHsqCCPACk3-13" value="&lt;font style=&quot;font-size: 10px;&quot;&gt;Ingredients&lt;/font&gt;" style="rounded=1;whiteSpace=wrap;html=1;" vertex="1" parent="VxDrKxtzlqHsqCCPACk3-19">
          <mxGeometry x="210" width="60" height="40" as="geometry" />
        </mxCell>
        <mxCell id="VxDrKxtzlqHsqCCPACk3-14" value="world Cuisines" style="rounded=1;whiteSpace=wrap;html=1;" vertex="1" parent="VxDrKxtzlqHsqCCPACk3-19">
          <mxGeometry x="140" width="60" height="40" as="geometry" />
        </mxCell>
        <mxCell id="VxDrKxtzlqHsqCCPACk3-15" value="How-tos" style="rounded=1;whiteSpace=wrap;html=1;" vertex="1" parent="VxDrKxtzlqHsqCCPACk3-19">
          <mxGeometry x="70" width="60" height="40" as="geometry" />
        </mxCell>
        <mxCell id="VxDrKxtzlqHsqCCPACk3-16" value="recipes" style="rounded=1;whiteSpace=wrap;html=1;" vertex="1" parent="VxDrKxtzlqHsqCCPACk3-19">
          <mxGeometry width="60" height="40" as="geometry" />
        </mxCell>
        <mxCell id="VxDrKxtzlqHsqCCPACk3-25" value="course" style="rounded=1;whiteSpace=wrap;html=1;" vertex="1" parent="1">
          <mxGeometry x="180" y="120" width="60" height="40" as="geometry" />
        </mxCell>
        <mxCell id="VxDrKxtzlqHsqCCPACk3-26" value="ingredient" style="rounded=1;whiteSpace=wrap;html=1;" vertex="1" parent="1">
          <mxGeometry x="180" y="170" width="60" height="40" as="geometry" />
        </mxCell>
        <mxCell id="VxDrKxtzlqHsqCCPACk3-27" value="cuisine" style="rounded=1;whiteSpace=wrap;html=1;" vertex="1" parent="1">
          <mxGeometry x="180" y="220" width="60" height="40" as="geometry" />
        </mxCell>
        <mxCell id="VxDrKxtzlqHsqCCPACk3-28" style="edgeStyle=orthogonalEdgeStyle;rounded=0;orthogonalLoop=1;jettySize=auto;html=1;exitX=0.5;exitY=1;exitDx=0;exitDy=0;" edge="1" parent="1" source="VxDrKxtzlqHsqCCPACk3-26" target="VxDrKxtzlqHsqCCPACk3-26">
          <mxGeometry relative="1" as="geometry" />
        </mxCell>
        <mxCell id="VxDrKxtzlqHsqCCPACk3-29" style="edgeStyle=orthogonalEdgeStyle;rounded=0;orthogonalLoop=1;jettySize=auto;html=1;exitX=0.5;exitY=1;exitDx=0;exitDy=0;" edge="1" parent="1" source="VxDrKxtzlqHsqCCPACk3-27" target="VxDrKxtzlqHsqCCPACk3-27">
          <mxGeometry relative="1" as="geometry" />
        </mxCell>
        <mxCell id="VxDrKxtzlqHsqCCPACk3-30" value="method" style="rounded=1;whiteSpace=wrap;html=1;" vertex="1" parent="1">
          <mxGeometry x="180" y="270" width="60" height="40" as="geometry" />
        </mxCell>
        <mxCell id="VxDrKxtzlqHsqCCPACk3-31" value="diet" style="rounded=1;whiteSpace=wrap;html=1;" vertex="1" parent="1">
          <mxGeometry x="180" y="320" width="60" height="40" as="geometry" />
        </mxCell>
        <mxCell id="VxDrKxtzlqHsqCCPACk3-32" value="holiday &amp;amp; season" style="rounded=1;whiteSpace=wrap;html=1;" vertex="1" parent="1">
          <mxGeometry x="180" y="370" width="60" height="40" as="geometry" />
        </mxCell>
      </root>
    </mxGraphModel>
  </diagram>
</mxfile>
